<svg xmlns="http://www.w3.org/2000/svg" viewBox="0 0 72 72"><circle cx="36" cy="36" r="34.64" style="fill:#d84942"/><circle cx="36" cy="36" r="31.66" style="fill:#d84942;stroke:#fff;stroke-miterlimit:10;stroke-width:1.5px"/><path d="M44.06,26.14s4.09-6.78,2.22-7.71-4.68.93-4.68.93,1.87-6.54-1.87-6.54-4.67,3.74-4.67,3.74S33.7,8.8,28.52,11c-3.24,1.34-4.68,4.67,0,14" style="fill:#ea5a47"/><path d="M22,34.32S25.72,24,36,24,50,34.32,50,34.32C64,60.49,36,61.43,36,61.43S8,60.49,22,34.32Z" style="fill:#fff"/><path d="M36,41.8s16.83-.94,0,16.82C36,58.62,19.17,41.8,36,41.8Z" style="fill:#f1b31c"/><path d="M43.91,26.14s4.09-6.78,2.22-7.71-4.68.93-4.68.93,1.87-6.54-1.87-6.54-4.67,3.74-4.67,3.74S33.55,8.8,28.37,11c-3.24,1.34-4.68,4.67,0,14" style="fill:none;stroke:#000;stroke-linecap:round;stroke-linejoin:round;stroke-width:1.5px"/><circle cx="27.59" cy="38.06" r="1.87"/><circle cx="44.41" cy="38.06" r="1.87"/><path d="M36,41.8s16.82-.94,0,16.82C36,58.62,19.19,41.8,36,41.8Z" style="fill:none;stroke:#000;stroke-linecap:round;stroke-linejoin:round;stroke-width:1.5px"/><path d="M22,34.32S25.72,24,36,24,50,34.32,50,34.32C64,60.49,36,61.43,36,61.43S8,60.49,22,34.32Z" style="fill:none;stroke:#000;stroke-linecap:round;stroke-linejoin:round;stroke-width:1.5px"/><path d="M51.52,59.31l-1.29,1.85-.54-.1L46,65.88a2.07,2.07,0,0,1-.37-.89L44,54.43Z" style="fill:#d0cfce"/><line x1="44.17" y1="54.23" x2="44.14" y2="54.22" style="fill:none"/><path d="M51,59.29l2,1.36a2.58,2.58,0,0,0,.32.18,2.31,2.31,0,0,0,2.95-.48,3,3,0,0,0,.23-.27L58,58.15" style="fill:#d0cfce"/><path d="M51,59.29l2,1.36a2.58,2.58,0,0,0,.32.18,2.31,2.31,0,0,0,2.95-.48,3,3,0,0,0,.23-.27L58,58.15l6.85,4.65a.86.86,0,0,1-.6.62L46.8,66.26a.85.85,0,0,1-.76-.38l5-6.59" style="fill:#d0cfce;stroke:#d0cfce;stroke-linecap:round;stroke-linejoin:round;stroke-width:1.79999995231628px"/><path d="M59.36,59.07l5.49,3.73a.86.86,0,0,1-.6.62L46.8,66.26a.85.85,0,0,1-.76-.38L50,60.69" style="fill:#d0cfce"/><path d="M64,52.37l1.3,9.49a1.66,1.66,0,0,1-.1.84l-4.88-3.11-.4.08-1.76-1.15Z" style="fill:#9b9b9a"/><path d="M63.41,51.61l-5.19,6.87-1.47,1.93a3,3,0,0,1-.23.27,2.32,2.32,0,0,1-3,.48L53.25,61l-2-1.36-7.09-4.85,0-.09a.78.78,0,0,1,.56-.49l17.91-2.91a.78.78,0,0,1,.67.26Z" style="fill:#d0cfce"/><path d="M49.58,61.6l-3.82,4.86a1.91,1.91,0,0,1-.38-.89L43.65,55" style="fill:none;stroke:#000;stroke-linecap:round;stroke-linejoin:round"/><path d="M63.65,51.68l1.73,10.64a1.82,1.82,0,0,1-.07.94L60.1,59.85" style="fill:none;stroke:#000;stroke-linecap:round;stroke-linejoin:round"/><line x1="43.88" y1="54.75" x2="43.85" y2="54.74" style="fill:none;stroke:#000;stroke-linecap:round;stroke-linejoin:round"/><path d="M51,59.8l2.06,1.36a1.5,1.5,0,0,0,.32.18,2.48,2.48,0,0,0,3.08-.5l.24-.27,1.53-2" style="fill:none;stroke:#000;stroke-linecap:round;stroke-linejoin:round"/><path d="M59.63,59.54l5.68,3.72a.87.87,0,0,1-.63.63l-18.13,3a.87.87,0,0,1-.79-.38l4.11-5.24" style="fill:none;stroke:#000;stroke-linecap:round;stroke-linejoin:round"/><path d="M63.65,51.68l-5.43,6.94-1.53,2-.24.27a2.48,2.48,0,0,1-3.08.5,1.5,1.5,0,0,1-.32-.18L51,59.8,43.65,55a.56.56,0,0,0,.05-.08.8.8,0,0,1,.58-.49l18.62-3a.79.79,0,0,1,.68.26A.23.23,0,0,1,63.65,51.68Z" style="fill:none;stroke:#000;stroke-linecap:round;stroke-linejoin:round"/></svg>